<svg version="1.1" id="Layer_1" xmlns="http://www.w3.org/2000/svg" xmlns:xlink="http://www.w3.org/1999/xlink" x="0px" y="0px"
	 width="100%" viewBox="0 0 125 60" enable-background="new 0 0 125 60" xml:space="preserve">
<path fill="#FBFCFD" opacity="1.000000" stroke="none" 
	d="
M126.000000,38.000000 
	C126.000000,45.636597 126.000000,53.273193 126.000000,61.000000 
	C96.645828,61.000000 67.291573,61.000000 37.429283,60.614559 
	C37.861271,55.390381 43.881428,54.220837 45.479675,54.698753 
	C52.556717,56.814972 52.065983,50.293213 56.622715,47.946613 
	C51.646900,46.433544 48.872025,46.366512 45.457649,48.584431 
	C41.571205,51.108994 36.870682,53.193214 32.322338,53.716705 
	C22.849590,54.806965 13.312793,48.038975 10.183510,39.212421 
	C6.767998,29.578520 9.979074,19.412067 18.434717,13.088626 
	C26.010397,7.423254 36.970146,7.501674 44.844440,13.778227 
	C48.459675,16.659904 51.724758,16.607773 56.781921,14.593788 
	C52.441879,12.012133 52.224579,4.976919 45.473656,8.443659 
	C45.147179,8.611312 44.385197,7.723727 43.764660,7.559783 
	C39.947159,6.551208 37.181168,4.175078 35.000000,1.000000 
	C65.225922,1.000000 95.451851,1.000000 126.000000,1.000000 
	C126.000000,11.685402 126.000000,22.374043 125.660278,33.582169 
	C124.611832,34.426006 123.903107,34.750362 123.111359,35.416260 
	C123.342636,36.451603 123.656929,37.145401 124.315796,37.907158 
	C125.106911,37.983410 125.553459,37.991707 126.000000,38.000000 
M114.014542,36.679626 
	C114.654106,37.102299 115.293663,37.524971 116.461967,37.965656 
	C116.637878,37.978134 116.813782,37.990616 117.501556,38.226849 
	C117.612953,36.907730 117.724358,35.588608 117.944855,33.628319 
	C117.161972,33.550804 116.379082,33.473286 115.007568,33.478283 
	C114.724724,34.302219 114.441887,35.126156 114.014542,36.679626 
M110.488739,29.887165 
	C110.746140,29.873766 111.003540,29.860365 111.759743,29.295408 
	C111.473526,28.178104 111.522736,26.616056 110.803154,26.073353 
	C110.134529,25.569084 108.049522,25.762140 107.664337,26.351526 
	C107.143318,27.148741 107.650124,28.617687 108.494598,29.861897 
	C108.754372,29.843691 109.014137,29.825483 109.496231,29.810070 
	C109.496231,29.810070 109.717422,29.832602 110.488739,29.887165 
M42.128345,22.089815 
	C34.183609,22.089815 26.238873,22.089815 18.152233,22.089815 
	C18.152233,26.602230 18.152233,30.486229 18.152233,35.050293 
	C25.051437,35.050293 31.613825,35.050293 38.176212,35.050293 
	C38.165955,35.455338 38.155693,35.860386 38.145435,36.265430 
	C31.556168,36.265430 24.966902,36.265430 18.136967,36.265430 
	C18.136967,38.345028 18.136967,39.892715 18.136967,41.606361 
	C26.867708,41.606361 35.267422,41.606361 43.779961,41.606361 
	C43.779961,37.381527 43.779961,33.494007 43.779961,28.921759 
	C36.917961,28.921759 30.396349,28.921759 23.874737,28.921759 
	C23.885422,28.515530 23.896107,28.109303 23.906790,27.703074 
	C30.497807,27.703074 37.088825,27.703074 44.556915,27.703074 
	C43.925774,25.424393 43.481735,23.821224 42.128345,22.089815 
M56.978916,34.393791 
	C56.982731,36.222744 56.681793,38.124863 57.097179,39.855003 
	C57.375546,41.014454 58.670246,41.929897 59.510189,42.954521 
	C60.380840,41.942005 61.633713,41.057018 62.024914,39.884529 
	C62.508633,38.434742 62.276897,36.746243 62.375095,34.734299 
	C69.702065,34.734299 76.452850,34.734299 83.471222,34.734299 
	C83.471222,30.386293 83.471222,26.500364 83.471222,22.334841 
	C74.614487,22.334841 66.070610,22.334841 56.979084,22.334841 
	C56.979084,26.206503 56.979084,29.819420 56.978916,34.393791 
M87.942650,30.582512 
	C87.942650,27.861593 87.942650,25.140675 87.942650,22.419758 
	C87.457466,22.446508 86.972290,22.473261 86.487106,22.500013 
	C86.487106,30.840492 86.487106,39.180973 86.487106,47.521450 
	C86.972252,47.528774 87.457397,47.536095 87.942543,47.543419 
	C87.942543,42.216187 87.942543,36.888954 87.942650,30.582512 
M48.008785,36.459396 
	C48.008785,38.911358 48.008785,41.363316 48.008785,44.205261 
	C49.963280,44.112179 51.462563,44.040779 53.119995,43.961845 
	C53.119995,37.492840 53.291679,31.526424 52.978134,25.585619 
	C52.913826,24.367186 51.033463,23.244600 49.990196,22.077835 
	C49.329884,23.229242 48.195637,24.342808 48.100101,25.539310 
	C47.837006,28.834444 48.008942,32.164314 48.008785,36.459396 
M93.166580,35.262032 
	C93.410721,36.207504 93.654869,37.152977 93.899017,38.098446 
	C94.584961,37.826294 95.270905,37.554142 95.956848,37.281990 
	C95.235130,36.445293 94.513412,35.608597 93.166580,35.262032 
z"/>
<path fill="#08689A" opacity="1.000000" stroke="none" 
	d="
M34.555836,1.000000 
	C37.181168,4.175078 39.947159,6.551208 43.764660,7.559783 
	C44.385197,7.723727 45.147179,8.611312 45.473656,8.443659 
	C52.224579,4.976919 52.441879,12.012133 56.781921,14.593788 
	C51.724758,16.607773 48.459675,16.659904 44.844440,13.778227 
	C36.970146,7.501674 26.010397,7.423254 18.434717,13.088626 
	C9.979074,19.412067 6.767998,29.578520 10.183510,39.212421 
	C13.312793,48.038975 22.849590,54.806965 32.322338,53.716705 
	C36.870682,53.193214 41.571205,51.108994 45.457649,48.584431 
	C48.872025,46.366512 51.646900,46.433544 56.622715,47.946613 
	C52.065983,50.293213 52.556717,56.814972 45.479675,54.698753 
	C43.881428,54.220837 37.861271,55.390381 36.960625,60.614559 
	C33.307091,61.000000 29.614182,61.000000 25.521343,60.614990 
	C24.144024,57.744118 17.983303,54.239780 15.614294,54.822140 
	C11.969133,55.718212 7.038001,50.900150 7.718340,47.107243 
	C8.374629,43.448410 4.686939,37.900555 1.000000,37.000000 
	C1.000000,33.638714 1.000000,30.277426 1.349947,26.333214 
	C6.609894,24.533260 7.503420,19.738829 7.767385,16.377853 
	C8.233988,10.436759 10.135285,7.767421 16.196638,8.382190 
	C16.860657,8.449537 17.573090,7.757620 18.299520,7.538978 
	C22.007175,6.423044 24.921829,4.273432 27.000000,1.000000 
	C29.370558,1.000000 31.741114,1.000000 34.555836,1.000000 
z"/>
<path fill="#FCFDFE" opacity="1.000000" stroke="none" 
	d="
M26.531334,1.000000 
	C24.921829,4.273432 22.007175,6.423044 18.299520,7.538978 
	C17.573090,7.757620 16.860657,8.449537 16.196638,8.382190 
	C10.135285,7.767421 8.233988,10.436759 7.767385,16.377853 
	C7.503420,19.738829 6.609894,24.533260 1.349947,25.875145 
	C1.000000,17.738834 1.000000,9.477667 1.000000,1.000000 
	C9.352980,1.000000 17.707823,1.000000 26.531334,1.000000 
z"/>
<path fill="#FCFDFE" opacity="1.000000" stroke="none" 
	d="
M1.000000,37.468693 
	C4.686939,37.900555 8.374629,43.448410 7.718340,47.107243 
	C7.038001,50.900150 11.969133,55.718212 15.614294,54.822140 
	C17.983303,54.239780 24.144024,57.744118 25.060707,60.614990 
	C17.073666,61.000000 9.147330,61.000000 1.000000,61.000000 
	C1.000000,53.313869 1.000000,45.625626 1.000000,37.468693 
z"/>
<path fill="#2577A4" opacity="1.000000" stroke="none" 
	d="
M123.194389,35.074715 
	C123.903107,34.750362 124.611832,34.426006 125.660278,34.050827 
	C126.000000,35.066654 126.000000,36.133312 126.000000,37.599983 
	C125.553459,37.991707 125.106911,37.983410 124.332489,37.605881 
	C124.072182,37.047153 124.139763,36.857658 124.249741,36.629726 
	C124.292137,36.591293 124.244110,36.390827 124.106834,36.140388 
	C123.711166,35.618202 123.452782,35.346458 123.194389,35.074715 
z"/>
<path fill="#A0A0A0" opacity="1.000000" stroke="none" 
	d="
M42.583019,22.153934 
	C43.481735,23.821224 43.925774,25.424393 44.556915,27.703074 
	C37.088825,27.703074 30.497807,27.703074 23.906790,27.703074 
	C23.896107,28.109303 23.885422,28.515530 23.874737,28.921759 
	C30.396349,28.921759 36.917961,28.921759 43.779961,28.921759 
	C43.779961,33.494007 43.779961,37.381527 43.779961,41.606361 
	C35.267422,41.606361 26.867708,41.606361 18.136967,41.606361 
	C18.136967,39.892715 18.136967,38.345028 18.136967,36.265430 
	C24.966902,36.265430 31.556168,36.265430 38.145435,36.265430 
	C38.155693,35.860386 38.165955,35.455338 38.176212,35.050293 
	C31.613825,35.050293 25.051437,35.050293 18.152233,35.050293 
	C18.152233,30.486229 18.152233,26.602230 18.152233,22.089815 
	C26.238873,22.089815 34.183609,22.089815 42.583019,22.153934 
z"/>
<path fill="#A1A1A1" opacity="1.000000" stroke="none" 
	d="
M56.979000,33.913063 
	C56.979084,29.819420 56.979084,26.206503 56.979084,22.334841 
	C66.070610,22.334841 74.614487,22.334841 83.471222,22.334841 
	C83.471222,26.500364 83.471222,30.386293 83.471222,34.734299 
	C76.452850,34.734299 69.702065,34.734299 62.375095,34.734299 
	C62.276897,36.746243 62.508633,38.434742 62.024914,39.884529 
	C61.633713,41.057018 60.380840,41.942005 59.510185,42.954521 
	C58.670246,41.929897 57.375546,41.014454 57.097179,39.855003 
	C56.681793,38.124863 56.982731,36.222744 56.979000,33.913063 
z"/>
<path fill="#B7B7B7" opacity="1.000000" stroke="none" 
	d="
M87.942596,31.072117 
	C87.942543,36.888954 87.942543,42.216187 87.942543,47.543419 
	C87.457397,47.536095 86.972252,47.528774 86.487106,47.521450 
	C86.487106,39.180973 86.487106,30.840492 86.487106,22.500013 
	C86.972290,22.473261 87.457466,22.446508 87.942650,22.419758 
	C87.942650,25.140675 87.942650,27.861593 87.942596,31.072117 
z"/>
<path fill="#005990" opacity="1.000000" stroke="none" 
	d="
M48.008785,35.969917 
	C48.008942,32.164314 47.837006,28.834444 48.100101,25.539310 
	C48.195637,24.342808 49.329884,23.229242 49.990196,22.077835 
	C51.033463,23.244600 52.913826,24.367186 52.978134,25.585619 
	C53.291679,31.526424 53.119995,37.492840 53.119995,43.961845 
	C51.462563,44.040779 49.963280,44.112179 48.008785,44.205261 
	C48.008785,41.363316 48.008785,38.911358 48.008785,35.969917 
M51.798096,41.817493 
	C51.798096,35.935741 51.798096,30.053989 51.798096,23.117596 
	C50.052208,24.463669 49.361870,24.743158 49.354897,25.038763 
	C49.226665,30.476259 49.135044,35.916313 49.210976,41.353382 
	C49.216438,41.744659 50.571060,42.117100 51.798096,41.817493 
z"/>
<path fill="#9A9A9A" opacity="1.000000" stroke="none" 
	d="
M107.715958,29.798441 
	C107.650124,28.617687 107.143318,27.148741 107.664337,26.351526 
	C108.049522,25.762140 110.134529,25.569084 110.803154,26.073353 
	C111.522736,26.616056 111.473526,28.178104 111.430763,29.272501 
	C110.950333,28.692987 110.798882,28.136383 110.471382,26.932783 
	C110.106041,28.337927 109.911736,29.085264 109.717422,29.832602 
	C109.717422,29.832602 109.496231,29.810070 109.309586,29.516155 
	C108.957191,28.685249 108.791451,28.148258 108.421486,26.949617 
	C108.076485,28.342688 107.896217,29.070564 107.715958,29.798441 
z"/>
<path fill="#2A7FAA" opacity="1.000000" stroke="none" 
	d="
M93.479141,35.016964 
	C94.513412,35.608597 95.235130,36.445293 95.956848,37.281990 
	C95.270905,37.554142 94.584961,37.826294 93.899017,38.098446 
	C93.654869,37.152977 93.410721,36.207504 93.479141,35.016964 
z"/>
<path fill="#B5D2E1" opacity="1.000000" stroke="none" 
	d="
M115.596199,33.395771 
	C116.379082,33.473286 117.161972,33.550804 117.632004,34.159439 
	C117.209335,35.794735 117.099510,36.898914 116.989685,38.003094 
	C116.813782,37.990616 116.637878,37.978134 116.179901,37.613213 
	C115.848274,36.804699 115.798729,36.348629 115.832047,35.582996 
	C115.808678,34.647545 115.702438,34.021660 115.596199,33.395771 
z"/>
<path fill="#09679A" opacity="1.000000" stroke="none" 
	d="
M115.301880,33.437027 
	C115.702438,34.021660 115.808678,34.647545 115.567642,35.601986 
	C114.866592,35.937057 114.512817,35.943573 114.159050,35.950092 
	C114.441887,35.126156 114.724724,34.302219 115.301880,33.437027 
z"/>
<path fill="#125A90" opacity="1.000000" stroke="none" 
	d="
M117.245621,38.114971 
	C117.099510,36.898914 117.209335,35.794735 117.577454,34.480022 
	C117.724358,35.588608 117.612953,36.907730 117.245621,38.114971 
z"/>
<path fill="#408CB2" opacity="1.000000" stroke="none" 
	d="
M114.086792,36.314857 
	C114.512817,35.943573 114.866592,35.937057 115.484772,35.911549 
	C115.798729,36.348629 115.848274,36.804699 115.915527,37.604206 
	C115.293663,37.524971 114.654106,37.102299 114.086792,36.314857 
z"/>
<path fill="#E2E2E2" opacity="1.000000" stroke="none" 
	d="
M108.105278,29.830170 
	C107.896217,29.070564 108.076485,28.342688 108.421486,26.949617 
	C108.791451,28.148258 108.957191,28.685249 109.198425,29.514759 
	C109.014137,29.825483 108.754372,29.843691 108.105278,29.830170 
z"/>
<path fill="#E9E9E9" opacity="1.000000" stroke="none" 
	d="
M110.103081,29.859882 
	C109.911736,29.085264 110.106041,28.337927 110.471382,26.932783 
	C110.798882,28.136383 110.950333,28.692987 111.181358,29.548279 
	C111.003540,29.860365 110.746140,29.873766 110.103081,29.859882 
z"/>
<path fill="#00508A" opacity="1.000000" stroke="none" 
	d="
M123.111359,35.416260 
	C123.452782,35.346458 123.711166,35.618202 124.139198,36.215218 
	C124.308838,36.540489 124.207344,36.668159 124.207344,36.668159 
	C124.139763,36.857658 124.072182,37.047153 123.987915,37.537922 
	C123.656929,37.145401 123.342636,36.451603 123.111359,35.416260 
z"/>
<path fill="#FBFCFD" opacity="1.000000" stroke="none" 
	d="
M124.249741,36.629726 
	C124.207344,36.668159 124.308838,36.540489 124.276474,36.465660 
	C124.244110,36.390827 124.292137,36.591293 124.249741,36.629726 
z"/>
<path fill="#006699" opacity="1.000000" stroke="none" 
	d="
M51.548241,42.157898 
	C50.571060,42.117100 49.216438,41.744659 49.210976,41.353382 
	C49.135044,35.916313 49.226665,30.476259 49.354897,25.038763 
	C49.361870,24.743158 50.052208,24.463669 51.798096,23.117596 
	C51.798096,30.053989 51.798096,35.935741 51.548241,42.157898 
z"/>
</svg>